<svg width="119" height="58" viewBox="0 0 119 58" fill="none" xmlns="http://www.w3.org/2000/svg">
<circle cx="75" cy="48" r="2" fill="#5999DC"/>
<rect x="27" y="11" width="87" height="28" rx="14" fill="#071952"/>
<rect x="16.1719" y="21.9336" width="10.2133" height="35.7465" rx="5.10664" transform="rotate(-34.3527 16.1719 21.9336)" fill="#295F98"/>
<ellipse cx="22.5543" cy="21.7032" rx="22.5543" ry="21.7032" fill="#295F98"/>
<path d="M36 30C36 32.4853 30.5081 37.5 22.5 37.5C14.4919 37.5 9 32.4853 9 30C9 27.5147 14.4919 23 22.5 23C30.5081 23 36 27.5147 36 30Z" fill="white"/>
<path d="M52.53 26.86C52.49 27.52 52.45 28.19 52.41 28.87C52.37 29.53 52.26 30.17 52.08 30.79C51.92 31.41 51.66 31.97 51.3 32.47C50.96 32.97 50.47 33.37 49.83 33.67C49.27 33.95 48.67 34.14 48.03 34.24C47.39 34.36 46.75 34.41 46.11 34.39C45.47 34.37 44.85 34.27 44.25 34.09C43.65 33.93 43.11 33.7 42.63 33.4C42.15 33.1 41.76 32.71 41.46 32.23C41.16 31.75 40.92 31.23 40.74 30.67C40.58 30.11 40.47 29.53 40.41 28.93C40.35 28.33 40.31 27.77 40.29 27.25C40.21 25.87 40.21 24.51 40.29 23.17C40.29 22.91 40.29 22.62 40.29 22.3C40.29 21.96 40.31 21.63 40.35 21.31C40.41 20.99 40.5 20.7 40.62 20.44C40.74 20.16 40.94 19.95 41.22 19.81C41.82 19.49 42.37 19.47 42.87 19.75C43.39 20.03 43.7 20.61 43.8 21.49C43.86 21.95 43.88 22.46 43.86 23.02C43.86 23.58 43.88 24.09 43.92 24.55C43.94 25.23 43.96 25.97 43.98 26.77C44 27.55 44.11 28.25 44.31 28.87C44.53 29.49 44.88 29.96 45.36 30.28C45.86 30.58 46.6 30.59 47.58 30.31C48.04 30.17 48.34 29.82 48.48 29.26C48.64 28.7 48.72 27.87 48.72 26.77C48.72 26.29 48.71 25.76 48.69 25.18C48.67 24.6 48.66 24.03 48.66 23.47C48.66 22.89 48.67 22.36 48.69 21.88C48.73 21.38 48.79 21 48.87 20.74C48.97 20.38 49.18 20.11 49.5 19.93C49.82 19.75 50.16 19.66 50.52 19.66C50.88 19.64 51.22 19.71 51.54 19.87C51.86 20.03 52.08 20.29 52.2 20.65C52.32 20.97 52.4 21.38 52.44 21.88C52.5 22.36 52.54 22.89 52.56 23.47C52.58 24.03 52.58 24.61 52.56 25.21C52.56 25.79 52.55 26.34 52.53 26.86ZM58.7749 22.63C58.7749 23.19 58.7749 23.82 58.7749 24.52C58.7949 25.22 58.8049 25.95 58.8049 26.71C58.8049 27.45 58.8049 28.19 58.8049 28.93C58.8049 29.65 58.7949 30.32 58.7749 30.94C58.7549 31.24 58.7249 31.57 58.6849 31.93C58.6449 32.27 58.5649 32.59 58.4449 32.89C58.3249 33.19 58.1349 33.44 57.8749 33.64C57.6349 33.82 57.3049 33.9 56.8849 33.88C56.2649 33.84 55.8149 33.57 55.5349 33.07C55.2749 32.57 55.1249 31.87 55.0849 30.97C55.0849 30.51 55.0749 29.98 55.0549 29.38C55.0549 28.78 55.0449 28.17 55.0249 27.55C55.0249 26.93 55.0249 26.33 55.0249 25.75C55.0249 25.15 55.0249 24.61 55.0249 24.13C55.0249 23.85 55.0149 23.51 54.9949 23.11C54.9949 22.71 55.0049 22.3 55.0249 21.88C55.0449 21.46 55.0949 21.06 55.1749 20.68C55.2549 20.28 55.3849 19.95 55.5649 19.69C55.7049 19.53 55.9049 19.41 56.1649 19.33C56.4249 19.23 56.6949 19.18 56.9749 19.18C57.2749 19.18 57.5549 19.23 57.8149 19.33C58.0949 19.43 58.2949 19.57 58.4149 19.75C58.4949 19.87 58.5549 20.04 58.5949 20.26C58.6349 20.48 58.6649 20.73 58.6849 21.01C58.7249 21.27 58.7449 21.55 58.7449 21.85C58.7649 22.13 58.7749 22.39 58.7749 22.63ZM57.6349 16.57C57.0149 16.73 56.4949 16.67 56.0749 16.39C55.6749 16.09 55.4249 15.65 55.3249 15.07C55.2449 14.65 55.2749 14.28 55.4149 13.96C55.5549 13.64 55.7649 13.4 56.0449 13.24C56.3249 13.06 56.6449 12.98 57.0049 13C57.3649 13.02 57.7249 13.16 58.0849 13.42C58.4249 13.66 58.6649 13.94 58.8049 14.26C58.9649 14.58 59.0149 14.89 58.9549 15.19C58.9149 15.49 58.7849 15.77 58.5649 16.03C58.3449 16.27 58.0349 16.45 57.6349 16.57ZM74.2209 20.77C74.3809 21.15 74.3909 21.57 74.2509 22.03C74.1309 22.49 73.9009 22.79 73.5609 22.93C73.3809 23.01 73.1409 23.08 72.8409 23.14C72.5409 23.18 72.2109 23.22 71.8509 23.26C71.5109 23.3 71.1709 23.33 70.8309 23.35C70.4909 23.37 70.2009 23.38 69.9609 23.38C69.9809 23.98 70.0009 24.6 70.0209 25.24C70.0409 25.86 70.0609 26.47 70.0809 27.07C70.1009 27.67 70.1109 28.25 70.1109 28.81C70.1109 29.35 70.1009 29.84 70.0809 30.28C70.0809 30.58 70.0809 30.93 70.0809 31.33C70.0809 31.71 70.0509 32.08 69.9909 32.44C69.9509 32.8 69.8809 33.12 69.7809 33.4C69.6809 33.66 69.5309 33.83 69.3309 33.91C68.7109 34.17 68.1409 34.24 67.6209 34.12C67.1209 34.02 66.7609 33.81 66.5409 33.49C66.3809 33.23 66.2609 32.93 66.1809 32.59C66.1009 32.23 66.0409 31.87 66.0009 31.51C65.9809 31.13 65.9709 30.77 65.9709 30.43C65.9909 30.07 66.0009 29.76 66.0009 29.5C66.0209 28.66 66.0309 27.71 66.0309 26.65C66.0509 25.57 66.0609 24.49 66.0609 23.41H65.6109C65.3709 23.41 65.0609 23.41 64.6809 23.41C64.3209 23.39 63.9509 23.36 63.5709 23.32C63.2109 23.26 62.8709 23.19 62.5509 23.11C62.2309 23.01 62.0009 22.87 61.8609 22.69C61.6409 22.43 61.5009 22.15 61.4409 21.85C61.4009 21.55 61.4209 21.27 61.5009 21.01C61.6009 20.73 61.7509 20.49 61.9509 20.29C62.1509 20.07 62.3809 19.93 62.6409 19.87C63.0009 19.77 63.5109 19.72 64.1709 19.72C64.8309 19.7 65.4509 19.7 66.0309 19.72C66.0109 19.52 66.0009 19.33 66.0009 19.15C66.0009 18.95 65.9909 18.76 65.9709 18.58C65.9509 18.34 65.9409 18.04 65.9409 17.68C65.9409 17.3 65.9609 16.93 66.0009 16.57C66.0609 16.19 66.1509 15.84 66.2709 15.52C66.3909 15.18 66.5609 14.92 66.7809 14.74C67.0809 14.5 67.3809 14.37 67.6809 14.35C68.0009 14.31 68.2909 14.35 68.5509 14.47C68.8309 14.59 69.0609 14.77 69.2409 15.01C69.4409 15.23 69.5809 15.48 69.6609 15.76C69.7209 16 69.7709 16.29 69.8109 16.63C69.8509 16.95 69.8709 17.29 69.8709 17.65C69.8909 18.01 69.9009 18.37 69.9009 18.73C69.9009 19.09 69.9009 19.42 69.9009 19.72H70.2009C70.5009 19.72 70.8509 19.71 71.2509 19.69C71.6509 19.67 72.0409 19.68 72.4209 19.72C72.8209 19.76 73.1809 19.86 73.5009 20.02C73.8209 20.16 74.0609 20.41 74.2209 20.77ZM85.9413 29.89C86.1813 29.83 86.4213 29.79 86.6613 29.77C86.9213 29.75 87.1513 29.78 87.3513 29.86C87.5713 29.94 87.7513 30.08 87.8913 30.28C88.0313 30.46 88.1013 30.72 88.1013 31.06C88.1013 31.3 88.0413 31.53 87.9213 31.75C87.8013 31.97 87.6513 32.17 87.4713 32.35C87.2913 32.53 87.0913 32.69 86.8713 32.83C86.6513 32.95 86.4413 33.05 86.2413 33.13C85.6613 33.39 84.9913 33.59 84.2313 33.73C83.4913 33.87 82.7213 33.92 81.9213 33.88C80.8413 33.84 79.8013 33.63 78.8013 33.25C77.8213 32.85 77.0513 32.2 76.4913 31.3C75.9713 30.42 75.6613 29.44 75.5613 28.36C75.4613 27.28 75.5113 26.26 75.7113 25.3C75.9313 24.14 76.3013 23.2 76.8213 22.48C77.3613 21.74 78.0013 21.15 78.7413 20.71C79.6413 20.19 80.6513 19.92 81.7713 19.9C82.8913 19.88 83.9613 20.1 84.9813 20.56C85.6613 20.86 86.2713 21.27 86.8113 21.79C87.3513 22.29 87.7613 22.9 88.0413 23.62C88.1213 23.8 88.1813 24.02 88.2213 24.28C88.2813 24.54 88.3213 24.82 88.3413 25.12C88.3613 25.4 88.3613 25.68 88.3413 25.96C88.3213 26.24 88.2713 26.49 88.1913 26.71C88.0713 27.07 87.9213 27.35 87.7413 27.55C87.5613 27.75 87.3313 27.9 87.0513 28C86.7713 28.1 86.4313 28.17 86.0313 28.21C85.6513 28.23 85.1913 28.25 84.6513 28.27C84.1713 28.29 83.7213 28.3 83.3013 28.3C82.8813 28.3 82.4513 28.3 82.0113 28.3C81.5713 28.28 81.1113 28.27 80.6313 28.27C80.1713 28.25 79.6513 28.23 79.0713 28.21C79.0113 28.61 79.0613 28.96 79.2213 29.26C79.4013 29.54 79.6413 29.78 79.9413 29.98C80.2413 30.16 80.5813 30.3 80.9613 30.4C81.3413 30.5 81.7113 30.56 82.0713 30.58C82.7513 30.62 83.4013 30.57 84.0213 30.43C84.6413 30.27 85.2813 30.09 85.9413 29.89ZM84.6513 24.07C84.2713 23.63 83.8713 23.31 83.4513 23.11C83.1313 22.97 82.7913 22.91 82.4313 22.93C82.0913 22.93 81.7613 22.98 81.4413 23.08C80.8613 23.22 80.3713 23.52 79.9713 23.98C79.9313 24.02 79.8613 24.12 79.7613 24.28C79.6613 24.42 79.5613 24.57 79.4613 24.73C79.3813 24.89 79.3213 25.04 79.2813 25.18C79.2413 25.32 79.2613 25.39 79.3413 25.39H85.2213C85.2013 25.11 85.1513 24.88 85.0713 24.7C84.9913 24.5 84.8513 24.29 84.6513 24.07ZM93.9834 21.37C94.5834 21.07 95.2134 20.86 95.8734 20.74C96.5334 20.6 97.1834 20.57 97.8234 20.65C98.4834 20.71 99.1134 20.88 99.7134 21.16C100.313 21.42 100.873 21.8 101.393 22.3C101.913 22.82 102.313 23.39 102.593 24.01C102.873 24.63 103.073 25.32 103.193 26.08C103.273 26.6 103.403 27.08 103.583 27.52C103.763 27.96 103.953 28.4 104.153 28.84C104.373 29.28 104.573 29.72 104.753 30.16C104.953 30.6 105.113 31.06 105.233 31.54C105.333 32 105.293 32.45 105.113 32.89C104.953 33.31 104.613 33.57 104.093 33.67C103.793 33.73 103.503 33.71 103.223 33.61C102.963 33.49 102.723 33.33 102.503 33.13C102.283 32.91 102.083 32.68 101.903 32.44C101.743 32.18 101.593 31.94 101.453 31.72C100.993 32.32 100.493 32.79 99.9534 33.13C99.4134 33.45 98.7634 33.66 98.0034 33.76C97.3634 33.84 96.7534 33.86 96.1734 33.82C95.5934 33.78 94.9734 33.67 94.3134 33.49C93.4534 33.27 92.7434 32.89 92.1834 32.35C91.6434 31.79 91.2234 31.15 90.9234 30.43C90.6434 29.69 90.4934 28.9 90.4734 28.06C90.4534 27.22 90.5534 26.39 90.7734 25.57C91.0534 24.49 91.4734 23.61 92.0334 22.93C92.5934 22.25 93.2434 21.73 93.9834 21.37ZM94.7334 24.88C94.4534 25.16 94.2334 25.49 94.0734 25.87C93.9134 26.25 93.8134 26.65 93.7734 27.07C93.7534 27.49 93.7934 27.91 93.8934 28.33C93.9934 28.75 94.1534 29.12 94.3734 29.44C94.5734 29.72 94.9134 29.96 95.3934 30.16C95.8734 30.34 96.3734 30.45 96.8934 30.49C97.4934 30.53 98.0134 30.37 98.4534 30.01C98.9134 29.65 99.2534 29.2 99.4734 28.66C99.7134 28.1 99.8234 27.51 99.8034 26.89C99.7834 26.25 99.6134 25.67 99.2934 25.15C99.0534 24.77 98.7334 24.49 98.3334 24.31C97.9534 24.13 97.5434 24.04 97.1034 24.04C96.6634 24.02 96.2234 24.09 95.7834 24.25C95.3634 24.39 95.0134 24.6 94.7334 24.88Z" fill="#FAFAFA"/>
<ellipse cx="90" cy="16.5" rx="3" ry="2.5" fill="#5999DC"/>
<ellipse cx="109.5" cy="14.5" rx="9.5" ry="8.5" fill="white"/>
</svg>
