<svg width="372" height="168" viewBox="0 0 372 168" fill="none" xmlns="http://www.w3.org/2000/svg">
<path d="M0 47.2694V16.4987L5.2533e-05 7.97468V0H52.4736H101.668H185.415H273.316H332.176H351.854H372V16.4987V168H0V47.2694Z" fill="#204057"/>
<path d="M112.598 70.3367C111.736 70.0412 110.867 69.7674 109.991 69.5157C110.138 68.9151 110.274 68.3218 110.394 67.7388C112.367 58.1666 111.077 50.4551 106.67 47.916C102.444 45.482 95.5337 48.02 88.5544 54.0885C87.8666 54.6876 87.194 55.304 86.5373 55.9371C86.0977 55.5161 85.6504 55.1033 85.1955 54.6989C77.8808 48.2103 70.549 45.4756 66.1465 48.0219C61.9247 50.4636 60.6746 57.713 62.4515 66.7848C62.6283 67.6833 62.8279 68.5771 63.0502 69.4654C62.0124 69.7601 61.0109 70.0736 60.0526 70.4075C51.4767 73.3947 46 78.076 46 82.9318C46 87.947 51.8795 92.9773 60.8116 96.0275C61.5358 96.2737 62.2659 96.5019 63.0015 96.7118C62.7626 97.6686 62.5505 98.6319 62.3655 99.6005C60.6714 108.515 61.9943 115.593 66.2048 118.019C70.5534 120.525 77.8523 117.95 84.9591 111.743C85.5354 111.238 86.099 110.719 86.6493 110.186C87.3605 110.872 88.0906 111.538 88.8389 112.182C95.7232 118.101 102.522 120.49 106.728 118.058C111.073 115.545 112.485 107.941 110.652 98.6901C110.508 97.9653 110.346 97.2442 110.166 96.5272C110.679 96.3755 111.182 96.2193 111.672 96.0569C120.958 92.9833 127 88.014 127 82.9318C127 78.0583 121.346 73.3454 112.598 70.3367ZM110.584 92.7756C110.141 92.922 109.687 93.0633 109.224 93.2008C108.199 89.9584 106.815 86.5109 105.122 82.9486C106.738 79.4714 108.068 76.0678 109.064 72.8466C109.893 73.0862 110.697 73.3388 111.472 73.6053C118.968 76.1835 123.54 79.9948 123.54 82.9318C123.54 86.0601 118.602 90.1212 110.584 92.7756ZM107.258 99.3615C108.068 103.452 108.184 107.151 107.647 110.042C107.164 112.64 106.194 114.372 104.995 115.066C102.442 116.542 96.9832 114.623 91.0958 109.562C90.3998 108.962 89.7207 108.344 89.0591 107.706C91.3416 105.212 93.6226 102.313 95.8489 99.0934C99.7647 98.7463 103.464 98.1786 106.819 97.4038C106.981 98.0528 107.127 98.7056 107.258 99.3615ZM73.6147 114.811C71.1208 115.691 69.1344 115.716 67.9336 115.024C65.3786 113.552 64.3164 107.869 65.7653 100.245C65.9375 99.3445 66.1347 98.4486 66.3566 97.5587C69.6745 98.2921 73.347 98.8194 77.272 99.1374C79.5134 102.288 81.8602 105.184 84.2254 107.72C83.7227 108.206 83.2082 108.679 82.6822 109.14C79.5394 111.884 76.3902 113.832 73.6147 114.811ZM61.9311 92.7563C57.9814 91.4075 54.7195 89.6546 52.4838 87.7418C50.4746 86.0231 49.4605 84.3164 49.4605 82.9318C49.4605 79.985 53.8576 76.2265 61.1916 73.672C62.0817 73.3622 63.0132 73.0698 63.9798 72.7954C64.9936 76.0893 66.3231 79.5333 67.9276 83.0159C66.3022 86.5501 64.9537 90.0491 63.9301 93.3819C63.2587 93.1898 62.5922 92.9812 61.9311 92.7563ZM65.8475 66.1207C64.3253 58.3484 65.3362 52.4854 67.8804 51.0139C70.5901 49.4467 76.5822 51.6813 82.898 57.284C83.3099 57.6502 83.715 58.0238 84.1133 58.4047C81.7599 60.9295 79.4346 63.8039 77.2132 66.9359C73.4036 67.2887 69.757 67.8552 66.4044 68.6142C66.1978 67.7879 66.0122 66.9563 65.8475 66.1207ZM100.787 74.7407C99.9954 73.3742 99.1742 72.0248 98.3241 70.6935C100.909 71.0201 103.385 71.4535 105.71 71.9833C105.012 74.2188 104.142 76.5559 103.118 78.952C102.369 77.5329 101.592 76.1288 100.787 74.7407ZM86.5389 60.8757C88.1349 62.6033 89.7334 64.5319 91.3056 66.6245C88.1162 66.4741 84.9215 66.4734 81.7321 66.6226C83.3059 64.5493 84.918 62.6232 86.5389 60.8757ZM72.1991 74.7641C71.4044 76.1411 70.6419 77.5363 69.9124 78.9488C68.905 76.5612 68.0428 74.2135 67.3388 71.9463C69.6498 71.4298 72.1143 71.0074 74.6822 70.6869C73.8227 72.0263 72.9947 73.3859 72.1991 74.7641ZM74.756 95.4227C72.1029 95.1269 69.6014 94.7263 67.291 94.2237C68.0061 91.9161 68.8872 89.5184 69.9165 87.0796C70.6489 88.4931 71.4145 89.8892 72.2127 91.2668C73.0334 92.683 73.8833 94.0701 74.756 95.4227ZM86.6345 105.232C84.9942 103.464 83.3584 101.508 81.7609 99.4048C83.3119 99.4655 84.893 99.4965 86.5 99.4965C88.151 99.4965 89.783 99.4595 91.3894 99.388C89.8121 101.529 88.2197 103.488 86.6345 105.232ZM103.15 86.955C104.233 89.4207 105.146 91.8058 105.87 94.0739C103.522 94.6094 100.986 95.0405 98.3143 95.3608C99.1704 94.0048 99.9995 92.632 100.801 91.2431C101.616 89.8313 102.399 88.4016 103.15 86.955ZM97.8036 89.5158C96.5767 91.6453 95.2807 93.7343 93.9178 95.7796C91.4491 95.9543 88.9749 96.0411 86.5 96.0398C83.9792 96.0398 81.5274 95.9614 79.1663 95.8084C77.7679 93.7678 76.4472 91.6751 75.2071 89.5348C73.9729 87.4058 72.8204 85.2308 71.7514 83.0144C72.8176 80.7974 73.967 78.6213 75.197 76.4907L75.1967 76.4911C76.4263 74.3599 77.7364 72.2762 79.1243 70.2443C81.5331 70.0623 84.0032 69.9674 86.4997 69.9674C89.0075 69.9674 91.4812 70.0632 93.8894 70.2466C95.2632 72.2753 96.565 74.3519 97.7922 76.4724C99.0263 78.5983 100.191 80.7638 101.284 82.9654C100.202 85.1894 99.0412 87.3743 97.8036 89.5158ZM104.942 50.9109C107.654 52.4738 108.709 58.7761 107.005 67.0409C106.896 67.5681 106.774 68.1052 106.641 68.6499C103.28 67.8748 99.6309 67.2985 95.8103 66.9403C93.5847 63.7738 91.2784 60.895 88.9632 58.4028C89.57 57.8184 90.1912 57.2493 90.8262 56.6958C96.8063 51.4966 102.395 49.4438 104.942 50.9109ZM86.5 75.7055C90.4946 75.7055 93.733 78.9409 93.733 82.9318C93.733 86.9228 90.4946 90.1582 86.5 90.1582C82.5054 90.1582 79.267 86.9228 79.267 82.9318C79.267 78.9409 82.5054 75.7055 86.5 75.7055Z" fill="#00D8FF"/>
<path d="M182.32 66H178.6V51.14C178.74 51.14 178.88 51.14 179.02 51.14C179.167 51.14 179.31 51.14 179.45 51.14C179.597 51.14 179.74 51.14 179.88 51.14C180.413 51.14 181.027 51.1133 181.72 51.06C182.42 51.0067 183.3 50.98 184.36 50.98C185.013 50.98 185.667 51.0533 186.32 51.2C186.973 51.34 187.57 51.5867 188.11 51.94C188.65 52.2867 189.083 52.7667 189.41 53.38C189.737 53.9933 189.9 54.7667 189.9 55.7C189.9 56.7133 189.73 57.55 189.39 58.21C189.057 58.8633 188.593 59.37 188 59.73C187.407 60.0833 186.72 60.32 185.94 60.44C185.68 60.4867 185.42 60.5333 185.16 60.58C184.9 60.6267 184.553 60.6667 184.12 60.7C183.693 60.7267 183.093 60.74 182.32 60.74V66ZM182.32 58.16C182.453 58.18 182.633 58.1967 182.86 58.21C183.087 58.2233 183.317 58.2333 183.55 58.24C183.783 58.24 183.98 58.24 184.14 58.24C184.9 58.24 185.453 58 185.8 57.52C186.147 57.0333 186.32 56.4467 186.32 55.76C186.32 55.3933 186.253 55.0467 186.12 54.72C185.993 54.3867 185.753 54.1167 185.4 53.91C185.053 53.7033 184.553 53.6 183.9 53.6C183.633 53.6 183.36 53.6167 183.08 53.65C182.807 53.6767 182.553 53.72 182.32 53.78V58.16ZM186.8 66C186.72 65.9 186.643 65.78 186.57 65.64C186.503 65.4933 186.4 65.26 186.26 64.94C186.06 64.4933 185.88 64.0267 185.72 63.54C185.56 63.0467 185.397 62.5867 185.23 62.16C185.07 61.7333 184.883 61.3867 184.67 61.12C184.457 60.8467 184.193 60.7067 183.88 60.7L184.74 60.02L187.1 59.7C187.473 59.8667 187.797 60.14 188.07 60.52C188.35 60.9 188.603 61.34 188.83 61.84C189.063 62.3333 189.293 62.85 189.52 63.39C189.747 63.9233 190 64.4333 190.28 64.92C190.38 65.1 190.483 65.28 190.59 65.46C190.697 65.64 190.8 65.82 190.9 66H186.8ZM198.164 66.16C196.364 66.16 194.991 65.65 194.044 64.63C193.098 63.6033 192.624 62.1867 192.624 60.38C192.624 59.3 192.844 58.3333 193.284 57.48C193.724 56.6267 194.358 55.9533 195.184 55.46C196.018 54.9667 197.024 54.72 198.204 54.72C198.798 54.72 199.371 54.79 199.924 54.93C200.478 55.0633 200.974 55.3 201.414 55.64C201.854 55.9733 202.208 56.4333 202.474 57.02C202.741 57.6067 202.878 58.3467 202.884 59.24C202.884 59.64 202.871 60.02 202.844 60.38C202.824 60.74 202.798 61.04 202.764 61.28H194.484L194.684 59.48H199.524C199.558 58.94 199.531 58.49 199.444 58.13C199.364 57.7633 199.214 57.49 198.994 57.31C198.781 57.13 198.491 57.04 198.124 57.04C197.704 57.04 197.348 57.1567 197.054 57.39C196.768 57.6167 196.551 58.01 196.404 58.57C196.258 59.13 196.191 59.9067 196.204 60.9C196.218 61.5467 196.334 62.07 196.554 62.47C196.781 62.8633 197.101 63.15 197.514 63.33C197.928 63.51 198.424 63.6 199.004 63.6C199.364 63.6 199.741 63.5733 200.134 63.52C200.528 63.4667 200.891 63.3967 201.224 63.31C201.564 63.2233 201.824 63.1333 202.004 63.04L202.564 64.96C202.318 65.16 201.974 65.3533 201.534 65.54C201.101 65.72 200.594 65.87 200.014 65.99C199.441 66.1033 198.824 66.16 198.164 66.16ZM208.958 66.16C208.225 66.16 207.585 66.01 207.038 65.71C206.498 65.4033 206.078 64.9833 205.778 64.45C205.485 63.91 205.338 63.2933 205.338 62.6C205.338 61.9467 205.515 61.38 205.868 60.9C206.228 60.4133 206.718 60.04 207.338 59.78C207.785 59.5867 208.272 59.4433 208.798 59.35C209.325 59.25 209.852 59.1833 210.378 59.15C210.912 59.1167 211.412 59.1 211.878 59.1L212.398 59.74L211.878 60.84C211.645 60.8467 211.402 60.8667 211.148 60.9C210.902 60.9267 210.668 60.9667 210.448 61.02C210.228 61.0667 210.052 61.12 209.918 61.18C209.712 61.2667 209.515 61.3967 209.328 61.57C209.148 61.7367 209.058 62.02 209.058 62.42C209.058 62.9467 209.202 63.33 209.488 63.57C209.782 63.8033 210.112 63.92 210.478 63.92C210.672 63.92 210.862 63.8967 211.048 63.85C211.242 63.8033 211.412 63.7467 211.558 63.68C211.705 63.6067 211.812 63.5333 211.878 63.46L212.458 64.2L212.058 65.06C211.752 65.3267 211.345 65.5767 210.838 65.81C210.338 66.0433 209.712 66.16 208.958 66.16ZM215.478 66H212.058V64.34H211.878V58.44C211.878 57.9467 211.742 57.6233 211.468 57.47C211.202 57.3167 210.818 57.24 210.318 57.24C209.892 57.24 209.445 57.2733 208.978 57.34C208.518 57.4067 208.072 57.5 207.638 57.62C207.205 57.7333 206.825 57.8667 206.498 58.02L205.758 55.9C206.032 55.7333 206.425 55.5567 206.938 55.37C207.458 55.1767 208.042 55.0133 208.688 54.88C209.335 54.7467 209.992 54.68 210.658 54.68C211.825 54.68 212.762 54.8167 213.468 55.09C214.175 55.3633 214.685 55.8067 214.998 56.42C215.318 57.0333 215.478 57.8533 215.478 58.88V66ZM218.225 60.54C218.225 59.4533 218.425 58.47 218.825 57.59C219.225 56.71 219.838 56.0133 220.665 55.5C221.498 54.98 222.565 54.72 223.865 54.72C224.618 54.72 225.275 54.7767 225.835 54.89C226.395 55.0033 226.765 55.1267 226.945 55.26L226.545 57.98C226.325 57.86 226.038 57.7533 225.685 57.66C225.338 57.5667 224.898 57.52 224.365 57.52C223.978 57.52 223.595 57.6033 223.215 57.77C222.841 57.9367 222.528 58.2233 222.275 58.63C222.028 59.03 221.898 59.58 221.885 60.28C221.871 61.0467 221.975 61.6567 222.195 62.11C222.421 62.5633 222.725 62.89 223.105 63.09C223.491 63.2833 223.918 63.38 224.385 63.38C224.858 63.38 225.295 63.34 225.695 63.26C226.101 63.18 226.425 63.0867 226.665 62.98L227.125 65.26C226.818 65.58 226.335 65.81 225.675 65.95C225.015 66.09 224.325 66.16 223.605 66.16C222.378 66.16 221.368 65.9167 220.575 65.43C219.781 64.9367 219.191 64.2667 218.805 63.42C218.418 62.5733 218.225 61.6133 218.225 60.54ZM233.443 66.16C232.643 66.16 232.003 66.0267 231.523 65.76C231.049 65.4933 230.706 65.0933 230.493 64.56C230.286 64.02 230.183 63.3467 230.183 62.54V57.24H228.903V55.32C229.396 55.18 229.803 55.0367 230.123 54.89C230.443 54.7367 230.676 54.5067 230.823 54.2C230.896 54.0467 230.976 53.8633 231.063 53.65C231.149 53.4367 231.239 53.2133 231.333 52.98C231.426 52.7467 231.516 52.5267 231.603 52.32H233.803V54.86H236.683V57.24H233.803V61.2C233.803 61.8933 233.839 62.4 233.913 62.72C233.993 63.04 234.126 63.2433 234.313 63.33C234.499 63.4167 234.756 63.46 235.083 63.46C235.249 63.46 235.439 63.44 235.653 63.4C235.866 63.3533 236.069 63.2967 236.263 63.23C236.456 63.1633 236.609 63.0933 236.723 63.02L237.143 65.02C236.969 65.1933 236.693 65.37 236.313 65.55C235.939 65.7233 235.503 65.87 235.003 65.99C234.503 66.1033 233.983 66.16 233.443 66.16ZM247.451 66.04L242.051 51.14H246.011L248.391 58.64L249.131 61.54L249.871 58.64L252.091 51.14H256.051L250.691 66.04H247.451ZM258.221 66V54.86H261.841V66H258.221ZM259.861 53.52C259.281 53.52 258.801 53.3467 258.421 53C258.047 52.6467 257.861 52.2 257.861 51.66C257.861 51.2933 257.961 50.9567 258.161 50.65C258.361 50.3433 258.624 50.1 258.951 49.92C259.284 49.7333 259.647 49.64 260.041 49.64C260.634 49.64 261.111 49.8133 261.471 50.16C261.837 50.5 262.021 50.9467 262.021 51.5C262.021 52.0467 261.811 52.52 261.391 52.92C260.971 53.32 260.461 53.52 259.861 53.52ZM268.883 59.44L268.743 56.82C268.876 56.4133 269.099 56.05 269.413 55.73C269.733 55.41 270.113 55.16 270.553 54.98C270.999 54.7933 271.483 54.7 272.003 54.7C272.163 54.7 272.323 54.71 272.483 54.73C272.643 54.75 272.756 54.78 272.823 54.82V58.4C272.736 58.34 272.599 58.28 272.413 58.22C272.226 58.1533 271.963 58.12 271.623 58.12C271.089 58.12 270.639 58.2 270.273 58.36C269.913 58.5133 269.619 58.6933 269.393 58.9C269.173 59.1067 269.003 59.2867 268.883 59.44ZM265.483 66V54.86H268.643L268.823 56.84L269.103 57.14V66H265.483ZM279.24 66.16C278.44 66.16 277.8 66.0267 277.32 65.76C276.846 65.4933 276.503 65.0933 276.29 64.56C276.083 64.02 275.98 63.3467 275.98 62.54V57.24H274.7V55.32C275.193 55.18 275.6 55.0367 275.92 54.89C276.24 54.7367 276.473 54.5067 276.62 54.2C276.693 54.0467 276.773 53.8633 276.86 53.65C276.946 53.4367 277.036 53.2133 277.13 52.98C277.223 52.7467 277.313 52.5267 277.4 52.32H279.6V54.86H282.48V57.24H279.6V61.2C279.6 61.8933 279.636 62.4 279.71 62.72C279.79 63.04 279.923 63.2433 280.11 63.33C280.296 63.4167 280.553 63.46 280.88 63.46C281.046 63.46 281.236 63.44 281.45 63.4C281.663 63.3533 281.866 63.2967 282.06 63.23C282.253 63.1633 282.406 63.0933 282.52 63.02L282.94 65.02C282.766 65.1933 282.49 65.37 282.11 65.55C281.736 65.7233 281.3 65.87 280.8 65.99C280.3 66.1033 279.78 66.16 279.24 66.16ZM289.199 66.16C288.385 66.16 287.729 66.0433 287.229 65.81C286.735 65.5767 286.359 65.2467 286.099 64.82C285.845 64.3933 285.675 63.8933 285.589 63.32C285.502 62.74 285.459 62.1067 285.459 61.42V54.86H289.059V61.5C289.059 62.06 289.112 62.49 289.219 62.79C289.325 63.0833 289.489 63.2867 289.709 63.4C289.929 63.5067 290.205 63.56 290.539 63.56C290.759 63.56 290.972 63.5333 291.179 63.48C291.392 63.42 291.579 63.35 291.739 63.27C291.905 63.19 292.032 63.1133 292.119 63.04V54.86H295.739V66.16H293.119C292.892 66.16 292.722 66.1233 292.609 66.05C292.495 65.9767 292.439 65.82 292.439 65.58V64.88L292.519 65.06C292.259 65.2733 291.939 65.4633 291.559 65.63C291.179 65.7967 290.779 65.9267 290.359 66.02C289.945 66.1133 289.559 66.16 289.199 66.16ZM302.448 66.16C301.714 66.16 301.074 66.01 300.528 65.71C299.988 65.4033 299.568 64.9833 299.268 64.45C298.974 63.91 298.828 63.2933 298.828 62.6C298.828 61.9467 299.004 61.38 299.358 60.9C299.718 60.4133 300.208 60.04 300.828 59.78C301.274 59.5867 301.761 59.4433 302.288 59.35C302.814 59.25 303.341 59.1833 303.868 59.15C304.401 59.1167 304.901 59.1 305.368 59.1L305.888 59.74L305.368 60.84C305.134 60.8467 304.891 60.8667 304.638 60.9C304.391 60.9267 304.158 60.9667 303.938 61.02C303.718 61.0667 303.541 61.12 303.408 61.18C303.201 61.2667 303.004 61.3967 302.818 61.57C302.638 61.7367 302.548 62.02 302.548 62.42C302.548 62.9467 302.691 63.33 302.978 63.57C303.271 63.8033 303.601 63.92 303.968 63.92C304.161 63.92 304.351 63.8967 304.538 63.85C304.731 63.8033 304.901 63.7467 305.048 63.68C305.194 63.6067 305.301 63.5333 305.368 63.46L305.948 64.2L305.548 65.06C305.241 65.3267 304.834 65.5767 304.328 65.81C303.828 66.0433 303.201 66.16 302.448 66.16ZM308.968 66H305.548V64.34H305.368V58.44C305.368 57.9467 305.231 57.6233 304.958 57.47C304.691 57.3167 304.308 57.24 303.808 57.24C303.381 57.24 302.934 57.2733 302.468 57.34C302.008 57.4067 301.561 57.5 301.128 57.62C300.694 57.7333 300.314 57.8667 299.988 58.02L299.248 55.9C299.521 55.7333 299.914 55.5567 300.428 55.37C300.948 55.1767 301.531 55.0133 302.178 54.88C302.824 54.7467 303.481 54.68 304.148 54.68C305.314 54.68 306.251 54.8167 306.958 55.09C307.664 55.3633 308.174 55.8067 308.488 56.42C308.808 57.0333 308.968 57.8533 308.968 58.88V66ZM312.471 66V49.76H316.091V66H312.471Z" fill="white"/>
<path d="M179.6 90V75.14C179.753 75.14 179.907 75.14 180.06 75.14C180.213 75.14 180.367 75.14 180.52 75.14C180.673 75.14 180.827 75.14 180.98 75.14C181.227 75.14 181.58 75.1267 182.04 75.1C182.507 75.0733 183.007 75.0467 183.54 75.02C184.08 74.9933 184.58 74.98 185.04 74.98C187.56 74.98 189.407 75.61 190.58 76.87C191.753 78.13 192.34 79.9067 192.34 82.2C192.34 83.8867 192.043 85.3267 191.45 86.52C190.857 87.7067 190 88.6133 188.88 89.24C187.76 89.86 186.407 90.1667 184.82 90.16C184.093 90.1467 183.403 90.1167 182.75 90.07C182.103 90.0233 181.493 90 180.92 90C180.773 90 180.627 90 180.48 90C180.333 90 180.187 90 180.04 90C179.893 90 179.747 90 179.6 90ZM183.34 87.26C183.533 87.32 183.783 87.3633 184.09 87.39C184.397 87.41 184.713 87.42 185.04 87.42C185.733 87.4133 186.337 87.2367 186.85 86.89C187.37 86.5433 187.77 86.01 188.05 85.29C188.337 84.57 188.48 83.6467 188.48 82.52C188.48 81.3267 188.35 80.3767 188.09 79.67C187.83 78.9567 187.433 78.4433 186.9 78.13C186.373 77.8167 185.707 77.66 184.9 77.66C184.653 77.66 184.377 77.6767 184.07 77.71C183.763 77.7367 183.52 77.7667 183.34 77.8V87.26ZM201.676 90.16C200.21 90.1867 198.956 89.89 197.916 89.27C196.883 88.6433 196.096 87.7533 195.556 86.6C195.023 85.44 194.77 84.0733 194.796 82.5C194.83 80.74 195.153 79.3167 195.766 78.23C196.386 77.1367 197.23 76.3333 198.296 75.82C199.363 75.3 200.583 75.02 201.956 74.98C203.363 74.94 204.57 75.2267 205.576 75.84C206.583 76.4467 207.35 77.3233 207.876 78.47C208.41 79.6167 208.663 80.9733 208.636 82.54C208.603 84.3 208.29 85.7367 207.696 86.85C207.103 87.9633 206.29 88.7867 205.256 89.32C204.223 89.8533 203.03 90.1333 201.676 90.16ZM201.736 87.48C202.696 87.48 203.453 87.0933 204.006 86.32C204.56 85.54 204.836 84.2467 204.836 82.44C204.836 81.5067 204.73 80.6867 204.516 79.98C204.303 79.2733 203.98 78.7233 203.546 78.33C203.113 77.9367 202.563 77.74 201.896 77.74C201.29 77.74 200.736 77.89 200.236 78.19C199.736 78.49 199.336 78.9933 199.036 79.7C198.743 80.4067 198.596 81.3733 198.596 82.6C198.596 83.5467 198.713 84.3867 198.946 85.12C199.18 85.8533 199.526 86.43 199.986 86.85C200.453 87.27 201.036 87.48 201.736 87.48ZM210.964 90L212.684 75.14H217.704L219.504 82.76L220.184 86.24L220.724 82.76L222.324 75.14H227.184L229.024 90H225.444L224.824 82.18L224.604 77.9L223.684 82.3L221.684 90.08H218.384L216.224 82.3L215.244 77.9L214.984 82.18L214.404 90H210.964Z" fill="white"/>
<path d="M179.6 115V100.14H189V102.92H183.3V106.06H187.7V108.76H183.3V112.16H189.58V115H179.6ZM191.204 115L195.224 109.12L195.304 109.78L191.224 103.86H195.144L196.744 106.4L197.604 107.84H196.824L197.564 106.4L199.044 103.86H202.944L198.804 109.7V108.9L203.024 115H199.064L197.304 112.16L196.564 110.86H197.424L196.784 112.16L195.204 115H191.204ZM205.457 119.94V103.86H208.877V105.22L209.077 105.46V113.56L209.037 114.58L209.077 116.36V119.94H205.457ZM210.877 115.16C210.217 115.16 209.677 115.09 209.257 114.95C208.844 114.803 208.577 114.687 208.457 114.6L209.077 112.32C209.217 112.46 209.424 112.563 209.697 112.63C209.97 112.69 210.27 112.72 210.597 112.72C211.024 112.72 211.397 112.587 211.717 112.32C212.044 112.053 212.3 111.663 212.487 111.15C212.674 110.63 212.77 109.993 212.777 109.24C212.777 108.167 212.61 107.427 212.277 107.02C211.944 106.607 211.49 106.4 210.917 106.4C210.557 106.4 210.207 106.46 209.867 106.58C209.534 106.693 209.27 106.827 209.077 106.98L208.697 105.12C208.85 104.953 209.07 104.76 209.357 104.54C209.644 104.32 210.014 104.13 210.467 103.97C210.92 103.803 211.477 103.72 212.137 103.72C212.93 103.72 213.664 103.913 214.337 104.3C215.01 104.68 215.55 105.263 215.957 106.05C216.37 106.83 216.577 107.82 216.577 109.02C216.577 110.28 216.34 111.37 215.867 112.29C215.394 113.203 214.727 113.91 213.867 114.41C213.014 114.91 212.017 115.16 210.877 115.16ZM219.553 115V98.76H223.173V115H219.553ZM229.781 115.16C229.048 115.16 228.408 115.01 227.861 114.71C227.321 114.403 226.901 113.983 226.601 113.45C226.308 112.91 226.161 112.293 226.161 111.6C226.161 110.947 226.338 110.38 226.691 109.9C227.051 109.413 227.541 109.04 228.161 108.78C228.608 108.587 229.094 108.443 229.621 108.35C230.148 108.25 230.674 108.183 231.201 108.15C231.734 108.117 232.234 108.1 232.701 108.1L233.221 108.74L232.701 109.84C232.468 109.847 232.224 109.867 231.971 109.9C231.724 109.927 231.491 109.967 231.271 110.02C231.051 110.067 230.874 110.12 230.741 110.18C230.534 110.267 230.338 110.397 230.151 110.57C229.971 110.737 229.881 111.02 229.881 111.42C229.881 111.947 230.024 112.33 230.311 112.57C230.604 112.803 230.934 112.92 231.301 112.92C231.494 112.92 231.684 112.897 231.871 112.85C232.064 112.803 232.234 112.747 232.381 112.68C232.528 112.607 232.634 112.533 232.701 112.46L233.281 113.2L232.881 114.06C232.574 114.327 232.168 114.577 231.661 114.81C231.161 115.043 230.534 115.16 229.781 115.16ZM236.301 115H232.881V113.34H232.701V107.44C232.701 106.947 232.564 106.623 232.291 106.47C232.024 106.317 231.641 106.24 231.141 106.24C230.714 106.24 230.268 106.273 229.801 106.34C229.341 106.407 228.894 106.5 228.461 106.62C228.028 106.733 227.648 106.867 227.321 107.02L226.581 104.9C226.854 104.733 227.248 104.557 227.761 104.37C228.281 104.177 228.864 104.013 229.511 103.88C230.158 103.747 230.814 103.68 231.481 103.68C232.648 103.68 233.584 103.817 234.291 104.09C234.998 104.363 235.508 104.807 235.821 105.42C236.141 106.033 236.301 106.853 236.301 107.88V115ZM239.945 115V103.86H243.565V115H239.945ZM241.585 102.52C241.005 102.52 240.525 102.347 240.145 102C239.772 101.647 239.585 101.2 239.585 100.66C239.585 100.293 239.685 99.9567 239.885 99.65C240.085 99.3433 240.348 99.1 240.675 98.92C241.008 98.7333 241.372 98.64 241.765 98.64C242.358 98.64 242.835 98.8133 243.195 99.16C243.562 99.5 243.745 99.9467 243.745 100.5C243.745 101.047 243.535 101.52 243.115 101.92C242.695 102.32 242.185 102.52 241.585 102.52ZM247.287 115V103.86H250.587L250.667 105.16C250.9 104.927 251.207 104.7 251.587 104.48C251.967 104.26 252.39 104.077 252.857 103.93C253.324 103.783 253.807 103.707 254.307 103.7C255.44 103.68 256.29 103.99 256.857 104.63C257.424 105.263 257.707 106.38 257.707 107.98V115H254.087V108.64C254.087 107.827 253.984 107.27 253.777 106.97C253.57 106.663 253.2 106.52 252.667 106.54C252.494 106.54 252.3 106.567 252.087 106.62C251.874 106.673 251.66 106.753 251.447 106.86C251.24 106.967 251.054 107.1 250.887 107.26V115H247.287ZM266.171 115.16C264.371 115.16 262.998 114.65 262.051 113.63C261.105 112.603 260.631 111.187 260.631 109.38C260.631 108.3 260.851 107.333 261.291 106.48C261.731 105.627 262.365 104.953 263.191 104.46C264.025 103.967 265.031 103.72 266.211 103.72C266.805 103.72 267.378 103.79 267.931 103.93C268.485 104.063 268.981 104.3 269.421 104.64C269.861 104.973 270.215 105.433 270.481 106.02C270.748 106.607 270.885 107.347 270.891 108.24C270.891 108.64 270.878 109.02 270.851 109.38C270.831 109.74 270.805 110.04 270.771 110.28H262.491L262.691 108.48H267.531C267.565 107.94 267.538 107.49 267.451 107.13C267.371 106.763 267.221 106.49 267.001 106.31C266.788 106.13 266.498 106.04 266.131 106.04C265.711 106.04 265.355 106.157 265.061 106.39C264.775 106.617 264.558 107.01 264.411 107.57C264.265 108.13 264.198 108.907 264.211 109.9C264.225 110.547 264.341 111.07 264.561 111.47C264.788 111.863 265.108 112.15 265.521 112.33C265.935 112.51 266.431 112.6 267.011 112.6C267.371 112.6 267.748 112.573 268.141 112.52C268.535 112.467 268.898 112.397 269.231 112.31C269.571 112.223 269.831 112.133 270.011 112.04L270.571 113.96C270.325 114.16 269.981 114.353 269.541 114.54C269.108 114.72 268.601 114.87 268.021 114.99C267.448 115.103 266.831 115.16 266.171 115.16ZM281.125 115V113.68L280.825 113.46V106.16L280.905 106.08L280.825 102.8V98.76H284.385V115H281.125ZM277.705 115.16C276.919 115.16 276.195 114.967 275.535 114.58C274.875 114.187 274.345 113.597 273.945 112.81C273.545 112.017 273.345 111.02 273.345 109.82C273.345 108.56 273.575 107.473 274.035 106.56C274.502 105.647 275.155 104.947 275.995 104.46C276.842 103.967 277.832 103.72 278.965 103.72C279.659 103.72 280.219 103.787 280.645 103.92C281.072 104.053 281.345 104.167 281.465 104.26L280.845 106.54C280.699 106.42 280.479 106.337 280.185 106.29C279.899 106.243 279.585 106.22 279.245 106.22C278.825 106.22 278.452 106.347 278.125 106.6C277.805 106.847 277.552 107.223 277.365 107.73C277.179 108.237 277.085 108.873 277.085 109.64C277.079 110.68 277.245 111.41 277.585 111.83C277.925 112.25 278.379 112.46 278.945 112.46C279.299 112.46 279.652 112.407 280.005 112.3C280.365 112.187 280.645 112.06 280.845 111.92L281.205 113.74C281.052 113.907 280.825 114.103 280.525 114.33C280.232 114.55 279.852 114.743 279.385 114.91C278.925 115.077 278.365 115.16 277.705 115.16Z" fill="#F58219"/>
</svg>
